# xmcd
#
# Track frame offsets: 
#        150
#        22691
#        37132
#        53333
#        73070
#        90177
#        100610
#        118447
#        144277
#        163439
#        181115
#        196043
#        213667
#        230550
#
# Disc length: 3337 seconds
#
# Revision: 0
# Processed by: cddbd v1.5.2PL0 Copyright (c) Steve Scherf et al.
# Submitted via: ExactAudioCopy v1.0b1
#
DISCID=b70d070e
DTITLE=Baker's family - Baker's Dozen
DYEAR=1900
DGENRE=
TTITLE0=Good Morning Little Schoolgirl
TTITLE1=Way Down in The Hole
TTITLE2=Hunting You
TTITLE3=She Drives Me Wild
TTITLE4=Mr. Big
TTITLE5=I Ain't Got You
TTITLE6=Do Your Own Work
TTITLE7=Need Your Love So Bad
TTITLE8=Connection
TTITLE9=Bored
TTITLE10=Strange Brew
TTITLE11=You Upset Me Baby
TTITLE12=Love Me Do
TTITLE13=John The Revelator
EXTD=
EXTT0=
EXTT1=
EXTT2=
EXTT3=
EXTT4=
EXTT5=
EXTT6=
EXTT7=
EXTT8=
EXTT9=
EXTT10=
EXTT11=
EXTT12=
EXTT13=
PLAYORDER=
